<?xml version="1.0" encoding="utf-8"?>
<!-- Generator: Adobe Illustrator 28.2.0, SVG Export Plug-In . SVG Version: 6.00 Build 0)  -->
<svg version="1.1" id="Artwork" xmlns="http://www.w3.org/2000/svg" xmlns:xlink="http://www.w3.org/1999/xlink" x="0px" y="0px"
	 viewBox="0 0 184.25 179.73" style="enable-background:new 0 0 184.25 179.73;" xml:space="preserve">
<style type="text/css">
	.st0{fill:#DEFF00;}
</style>
<path class="st0" d="M183.04,113.21L122.3,88.33c-0.59-0.24-0.76-0.99-0.33-1.46l43.92-48.78c0.64-0.71,0.67-1.78,0.08-2.53
	c-0.6-0.75-1.65-0.95-2.49-0.48l-57.59,32.54c-0.56,0.31-1.26-0.02-1.36-0.65L94.06,1.64c0-0.01-0.01-0.02-0.01-0.02
	c-0.04-0.21-0.11-0.4-0.21-0.58c-0.01-0.03-0.03-0.06-0.04-0.09c-0.1-0.17-0.23-0.32-0.37-0.45c-0.02-0.02-0.05-0.04-0.07-0.07
	c-0.16-0.12-0.33-0.23-0.51-0.3c-0.02-0.01-0.05-0.01-0.07-0.02C92.56,0.04,92.35,0,92.13,0c-0.23,0-0.44,0.04-0.64,0.11
	c-0.02,0.01-0.05,0.01-0.07,0.02c-0.19,0.07-0.36,0.18-0.51,0.3c-0.03,0.02-0.05,0.04-0.08,0.07c-0.15,0.13-0.27,0.28-0.37,0.45
	c-0.02,0.03-0.03,0.05-0.04,0.09c-0.1,0.18-0.17,0.37-0.21,0.58c0,0.01-0.01,0.02-0.01,0.02l-10.47,65.3
	c-0.1,0.63-0.8,0.97-1.36,0.65L20.78,35.07c-0.84-0.47-1.89-0.26-2.49,0.49c-0.6,0.75-0.56,1.83,0.08,2.54L62.9,87
	c0.43,0.47,0.26,1.23-0.34,1.47L1.22,113.21c-0.89,0.35-1.39,1.31-1.17,2.24c0.22,0.94,1.08,1.6,2.04,1.52l66-4.33
	c0.64-0.04,1.12,0.57,0.94,1.18l-18.9,63.38c-0.27,0.92,0.16,1.9,1.03,2.32c0.87,0.42,1.91,0.14,2.45-0.65l37.77-54.29
	c0.37-0.53,1.14-0.53,1.51,0l37.77,54.28c0.38,0.54,0.98,0.84,1.61,0.84c0.28,0,0.57-0.06,0.85-0.19c0.86-0.42,1.3-1.4,1.03-2.32
	l-18.9-63.38c-0.18-0.61,0.3-1.22,0.94-1.18l66,4.32c0.96,0.07,1.82-0.57,2.03-1.51C184.42,114.53,183.92,113.58,183.04,113.21z"/>
</svg>
